<svg viewBox="0 0 365 45" fill="none" xmlns="http://www.w3.org/2000/svg">
<path d="M38.936 45L50.52 25.224V45H65.368V0.0719986H47.576L32.984 24.968L18.456 0.0719986H0.728V45H15.64V25.352L26.648 45H38.936ZM84.6595 45V33.864H70.9635V45H84.6595ZM90.865 45H105.777V0.135998H90.865V45ZM110.478 0.0719986V45H125.39V34.376C127.886 34.376 134.606 34.376 138.894 34.376L146.51 44.936L163.726 45L154.574 31.752C158.926 29.384 162.83 24.904 162.83 16.584C162.83 0.647999 147.726 0.0719986 143.438 0.0719986H110.478ZM142.03 21.256C139.918 21.256 125.39 21.256 125.39 21.256V13.192C125.39 13.192 139.854 13.192 141.838 13.192C143.758 13.192 147.598 13.32 147.598 17.096C147.598 20.808 144.206 21.256 142.03 21.256ZM165.103 0.0719986V14.984H187.311V45H202.223V14.984H224.431V0.0719986H165.103ZM228.49 45H243.402V0.135998H228.49V45ZM297.336 0.0719986H246.456V12.552H275.96L246.456 30.728V45H247.224H297.336V32.648H268.216L297.336 14.6V0.0719986ZM344.373 0.199997H321.205L301.045 45H318.261L321.653 37.512H343.861L347.189 45H364.469L344.373 0.199997ZM326.965 24.52L332.725 12.808L338.485 24.52H326.965Z" fill="#eee"/>
</svg>